<svg width="500" height="500" viewBox="0 0 500 500" fill="none" xmlns="http://www.w3.org/2000/svg">
<mask id="mask0_17_19" style="mask-type:luminance" maskUnits="userSpaceOnUse" x="6" y="144" width="489" height="284">
<path d="M6.66669 144H494.667V428H6.66669V144Z" fill="white"/>
</mask>
<g mask="url(#mask0_17_19)">
<mask id="mask1_17_19" style="mask-type:luminance" maskUnits="userSpaceOnUse" x="-29" y="15" width="557" height="469">
<path d="M86.6667 15.9219L527.979 186.146L413.177 483.771L-28.1354 313.547L86.6667 15.9219Z" fill="white"/>
</mask>
<g mask="url(#mask1_17_19)">
<mask id="mask2_17_19" style="mask-type:luminance" maskUnits="userSpaceOnUse" x="-29" y="15" width="557" height="469">
<path d="M86.6667 15.9219L527.979 186.146L413.177 483.771L-28.1354 313.547L86.6667 15.9219Z" fill="white"/>
</mask>
<g mask="url(#mask2_17_19)">
<mask id="mask3_17_19" style="mask-type:luminance" maskUnits="userSpaceOnUse" x="7" y="144" width="488" height="284">
<path d="M491.443 254.177C502.422 216.849 483.661 176.479 448.224 160.604C420.865 148.245 390.583 152.828 368.521 169.417C357.526 177.625 342.318 176.979 331.63 168.24C323.406 161.453 313.766 155.724 303.281 151.682C272.521 139.812 239.552 143.562 213.026 159.234C197.656 168.365 178.583 167.833 163.167 158.875C156.474 154.885 149.094 151.641 141.375 149.266C91.3281 133.776 37.0886 158.833 16.1823 206.792C-7.63539 261.25 18.9844 323.927 73.8698 345.099C96.5886 353.859 120.422 354.021 141.844 347.422C163.505 340.719 186.656 350.453 196.922 370.677C208.938 394.182 229.875 413.302 257.333 422.286C307.807 438.745 363.474 413.635 384.474 364.911C386.875 359.214 388.786 353.724 390.245 347.865C395.016 328.219 410.417 313.276 430.339 309.516C458.214 304.406 482.698 284.13 491.443 254.177Z" fill="white"/>
</mask>
<g mask="url(#mask3_17_19)">
<path d="M64.7553 -34.1094L-102.401 399.25L435.245 606.63L602.401 173.271L64.7553 -34.1094Z" fill="#33AAFF"/>
</g>
</g>
</g>
</g>
<mask id="mask4_17_19" style="mask-type:luminance" maskUnits="userSpaceOnUse" x="153" y="106" width="47" height="46">
<path d="M153.333 106.667H200V152H153.333V106.667Z" fill="white"/>
</mask>
<g mask="url(#mask4_17_19)">
<mask id="mask5_17_19" style="mask-type:luminance" maskUnits="userSpaceOnUse" x="-29" y="15" width="557" height="469">
<path d="M86.6667 15.9219L527.979 186.146L413.177 483.771L-28.1354 313.547L86.6667 15.9219Z" fill="white"/>
</mask>
<g mask="url(#mask5_17_19)">
<mask id="mask6_17_19" style="mask-type:luminance" maskUnits="userSpaceOnUse" x="-29" y="15" width="557" height="469">
<path d="M86.6667 15.9219L527.979 186.146L413.177 483.771L-28.1354 313.547L86.6667 15.9219Z" fill="white"/>
</mask>
<g mask="url(#mask6_17_19)">
<mask id="mask7_17_19" style="mask-type:luminance" maskUnits="userSpaceOnUse" x="154" y="107" width="46" height="45">
<path d="M197.662 137.646C197.396 138.323 197.099 138.99 196.771 139.646C196.443 140.297 196.083 140.932 195.693 141.547C195.302 142.167 194.885 142.76 194.438 143.339C193.984 143.911 193.51 144.464 193.005 144.995C192.505 145.521 191.974 146.026 191.422 146.5C190.87 146.979 190.292 147.427 189.698 147.849C189.099 148.266 188.484 148.656 187.849 149.016C187.214 149.38 186.563 149.703 185.896 150C185.229 150.297 184.547 150.563 183.854 150.786C183.162 151.016 182.458 151.214 181.745 151.375C181.031 151.531 180.313 151.656 179.589 151.745C178.865 151.833 178.135 151.891 177.406 151.906C176.677 151.927 175.948 151.906 175.219 151.854C174.495 151.802 173.771 151.708 173.047 151.589C172.328 151.464 171.62 151.302 170.917 151.109C170.214 150.911 169.521 150.682 168.839 150.422C168.156 150.156 167.49 149.865 166.839 149.536C166.188 149.208 165.552 148.849 164.932 148.458C164.318 148.068 163.719 147.646 163.146 147.198C162.568 146.745 162.016 146.271 161.49 145.766C160.958 145.266 160.458 144.734 159.979 144.182C159.505 143.63 159.052 143.057 158.635 142.458C158.214 141.859 157.823 141.245 157.464 140.609C157.104 139.974 156.776 139.323 156.479 138.656C156.182 137.99 155.922 137.307 155.693 136.615C155.464 135.922 155.271 135.219 155.109 134.505C154.948 133.792 154.823 133.073 154.734 132.349C154.646 131.625 154.594 130.901 154.573 130.167C154.557 129.438 154.573 128.708 154.63 127.984C154.682 127.255 154.771 126.531 154.896 125.813C155.021 125.094 155.182 124.38 155.375 123.677C155.568 122.974 155.797 122.281 156.063 121.599C156.323 120.917 156.62 120.25 156.948 119.599C157.276 118.948 157.635 118.313 158.026 117.693C158.417 117.078 158.839 116.484 159.287 115.906C159.734 115.333 160.214 114.776 160.714 114.25C161.219 113.719 161.745 113.219 162.297 112.74C162.854 112.266 163.427 111.818 164.026 111.396C164.62 110.974 165.234 110.583 165.87 110.224C166.505 109.865 167.156 109.536 167.828 109.24C168.495 108.948 169.172 108.682 169.865 108.453C170.563 108.224 171.266 108.031 171.974 107.87C172.688 107.708 173.406 107.583 174.13 107.495C174.854 107.406 175.583 107.354 176.313 107.333C177.042 107.318 177.771 107.333 178.5 107.391C179.229 107.443 179.953 107.531 180.672 107.656C181.391 107.781 182.104 107.943 182.807 108.135C183.51 108.328 184.203 108.557 184.885 108.823C185.563 109.083 186.229 109.38 186.885 109.708C187.537 110.036 188.172 110.396 188.787 110.786C189.401 111.177 190 111.599 190.573 112.047C191.151 112.495 191.703 112.974 192.234 113.474C192.76 113.979 193.266 114.505 193.74 115.063C194.219 115.615 194.667 116.188 195.089 116.786C195.505 117.38 195.896 118 196.255 118.635C196.615 119.266 196.943 119.922 197.24 120.589C197.537 121.255 197.797 121.938 198.026 122.63C198.255 123.323 198.453 124.026 198.609 124.734C198.771 125.448 198.896 126.167 198.984 126.891C199.073 127.615 199.13 128.344 199.146 129.073C199.167 129.802 199.146 130.531 199.094 131.26C199.037 131.99 198.948 132.714 198.823 133.432C198.698 134.151 198.542 134.865 198.344 135.568C198.151 136.271 197.922 136.964 197.662 137.646Z" fill="white"/>
</mask>
<g mask="url(#mask7_17_19)">
<path d="M160.333 92.3386L139.578 146.146L193.385 166.901L214.141 113.094L160.333 92.3386Z" fill="#33AAFF"/>
</g>
</g>
</g>
</g>
<mask id="mask8_17_19" style="mask-type:luminance" maskUnits="userSpaceOnUse" x="298" y="102" width="28" height="29">
<path d="M298.667 102.667H325.333V130.667H298.667V102.667Z" fill="white"/>
</mask>
<g mask="url(#mask8_17_19)">
<mask id="mask9_17_19" style="mask-type:luminance" maskUnits="userSpaceOnUse" x="-29" y="15" width="557" height="469">
<path d="M86.6666 15.9219L527.979 186.146L413.177 483.771L-28.1355 313.547L86.6666 15.9219Z" fill="white"/>
</mask>
<g mask="url(#mask9_17_19)">
<mask id="mask10_17_19" style="mask-type:luminance" maskUnits="userSpaceOnUse" x="-29" y="15" width="557" height="469">
<path d="M86.6666 15.9219L527.979 186.146L413.177 483.771L-28.1355 313.547L86.6666 15.9219Z" fill="white"/>
</mask>
<g mask="url(#mask10_17_19)">
<mask id="mask11_17_19" style="mask-type:luminance" maskUnits="userSpaceOnUse" x="298" y="103" width="28" height="28">
<path d="M324.411 121.88C324.099 122.698 323.708 123.474 323.24 124.214C322.771 124.948 322.24 125.635 321.635 126.266C321.036 126.901 320.375 127.469 319.661 127.969C318.948 128.474 318.193 128.901 317.396 129.255C316.594 129.609 315.771 129.88 314.917 130.073C314.068 130.266 313.203 130.37 312.328 130.391C311.458 130.411 310.588 130.349 309.729 130.198C308.87 130.052 308.031 129.818 307.219 129.505C306.401 129.193 305.625 128.802 304.885 128.333C304.151 127.865 303.463 127.333 302.833 126.729C302.198 126.125 301.63 125.469 301.13 124.755C300.625 124.042 300.198 123.286 299.844 122.484C299.49 121.687 299.219 120.859 299.026 120.01C298.833 119.156 298.729 118.297 298.708 117.422C298.687 116.547 298.75 115.682 298.896 114.823C299.047 113.964 299.281 113.125 299.594 112.307C299.906 111.495 300.297 110.719 300.766 109.979C301.234 109.24 301.766 108.557 302.37 107.922C302.974 107.292 303.63 106.724 304.344 106.219C305.057 105.719 305.812 105.292 306.615 104.937C307.411 104.583 308.234 104.307 309.088 104.12C309.943 103.927 310.802 103.818 311.677 103.797C312.552 103.776 313.417 103.839 314.276 103.99C315.135 104.141 315.974 104.37 316.792 104.687C317.604 105 318.38 105.391 319.12 105.859C319.854 106.323 320.542 106.859 321.172 107.464C321.807 108.062 322.375 108.724 322.875 109.437C323.38 110.151 323.807 110.906 324.161 111.703C324.516 112.505 324.792 113.328 324.979 114.182C325.172 115.031 325.276 115.896 325.302 116.771C325.323 117.641 325.255 118.51 325.109 119.37C324.958 120.229 324.729 121.068 324.411 121.88Z" fill="white"/>
</mask>
<g mask="url(#mask11_17_19)">
<path d="M302.135 94.8333L289.74 126.964L321.87 139.359L334.266 107.229L302.135 94.8333Z" fill="#33AAFF"/>
</g>
</g>
</g>
</g>
<mask id="mask12_17_19" style="mask-type:luminance" maskUnits="userSpaceOnUse" x="417" y="337" width="43" height="45">
<path d="M417.333 337.333H460V381.333H417.333V337.333Z" fill="white"/>
</mask>
<g mask="url(#mask12_17_19)">
<mask id="mask13_17_19" style="mask-type:luminance" maskUnits="userSpaceOnUse" x="-29" y="15" width="557" height="469">
<path d="M86.6667 15.9219L527.979 186.146L413.177 483.771L-28.1354 313.547L86.6667 15.9219Z" fill="white"/>
</mask>
<g mask="url(#mask13_17_19)">
<mask id="mask14_17_19" style="mask-type:luminance" maskUnits="userSpaceOnUse" x="-29" y="15" width="557" height="469">
<path d="M86.6667 15.9219L527.979 186.146L413.177 483.771L-28.1354 313.547L86.6667 15.9219Z" fill="white"/>
</mask>
<g mask="url(#mask14_17_19)">
<mask id="mask15_17_19" style="mask-type:luminance" maskUnits="userSpaceOnUse" x="417" y="338" width="43" height="43">
<path d="M458.286 366.677C457.792 367.964 457.172 369.188 456.438 370.354C455.698 371.516 454.854 372.599 453.906 373.594C452.958 374.594 451.917 375.49 450.792 376.281C449.667 377.073 448.474 377.75 447.214 378.307C445.953 378.865 444.651 379.297 443.307 379.599C441.964 379.901 440.604 380.068 439.224 380.104C437.849 380.135 436.479 380.036 435.125 379.802C433.766 379.563 432.443 379.198 431.156 378.703C429.875 378.208 428.651 377.589 427.484 376.854C426.323 376.115 425.24 375.271 424.245 374.323C423.245 373.375 422.349 372.333 421.557 371.208C420.76 370.083 420.089 368.891 419.526 367.63C418.969 366.37 418.542 365.068 418.24 363.724C417.937 362.38 417.771 361.021 417.734 359.641C417.703 358.266 417.802 356.896 418.036 355.542C418.271 354.182 418.641 352.859 419.135 351.578C419.63 350.292 420.245 349.068 420.984 347.901C421.719 346.74 422.563 345.656 423.516 344.661C424.464 343.661 425.5 342.766 426.63 341.974C427.755 341.182 428.948 340.505 430.208 339.948C431.469 339.385 432.766 338.958 434.115 338.656C435.458 338.354 436.818 338.188 438.193 338.151C439.573 338.12 440.938 338.219 442.297 338.453C443.656 338.688 444.974 339.057 446.26 339.552C447.547 340.047 448.771 340.661 449.932 341.401C451.099 342.135 452.177 342.979 453.177 343.932C454.177 344.88 455.068 345.917 455.865 347.047C456.656 348.172 457.333 349.365 457.891 350.625C458.448 351.885 458.88 353.188 459.182 354.531C459.484 355.875 459.651 357.234 459.682 358.609C459.719 359.99 459.62 361.354 459.38 362.714C459.146 364.073 458.781 365.391 458.286 366.677Z" fill="white"/>
</mask>
<g mask="url(#mask15_17_19)">
<path d="M423.141 324.01L403.594 374.693L454.276 394.245L473.828 343.557L423.141 324.01Z" fill="#33AAFF"/>
</g>
</g>
</g>
</g>
</svg>
