<svg width="100" height="149" viewBox="0 0 100 149" fill="none" xmlns="http://www.w3.org/2000/svg">
<mask id="mask0_221_2528" style="mask-type:luminance" maskUnits="userSpaceOnUse" x="0" y="0" width="99" height="146">
<path d="M0 0H98.8202V145.254H0V0Z" fill="white"/>
</mask>
<g mask="url(#mask0_221_2528)">
<mask id="mask1_221_2528" style="mask-type:luminance" maskUnits="userSpaceOnUse" x="0" y="0" width="99" height="146">
<path d="M75.9056 144.931C88.1 143.93 97.8202 133.856 98.4682 121.662C98.9984 112.235 94.2267 103.87 86.8629 99.2745C83.2105 96.977 81.6788 92.4409 83.0338 88.3172C84.0941 85.1361 84.6833 81.6604 84.6833 78.1242C84.6833 67.756 79.8526 58.5071 72.2532 52.4983C67.8349 49.0226 65.8305 43.3657 66.7141 37.8281C67.128 35.4128 67.2458 32.8797 67.0691 30.3465C65.9483 13.9106 52.4578 0.830975 36.0219 0.124053C17.3458 -0.70069 1.97029 14.2051 1.97029 32.7029C1.97029 40.3612 4.62125 47.3731 8.9806 52.9107C13.3989 58.5071 13.1632 66.4011 8.3915 71.703C2.85395 77.8886 -0.386112 86.1965 0.0851695 95.2686C0.968822 111.94 14.636 125.432 31.3075 126.08C33.2531 126.139 35.0793 126.08 36.9645 125.845C43.2679 125.02 49.3945 127.847 52.7524 133.267C57.4063 140.867 66.125 145.756 75.9056 144.931Z" fill="white"/>
</mask>
<g mask="url(#mask1_221_2528)">
<path d="M98.9985 -0.700714H-0.307007V145.756H98.9985V-0.700714Z" fill="url(#paint0_linear_221_2528)"/>
</g>
</g>
<mask id="mask2_221_2528" style="mask-type:luminance" maskUnits="userSpaceOnUse" x="69" y="31" width="16" height="15">
<path d="M69.4519 31.3526H84.136V45.6399H69.4519V31.3526Z" fill="white"/>
</mask>
<g mask="url(#mask2_221_2528)">
<mask id="mask3_221_2528" style="mask-type:luminance" maskUnits="userSpaceOnUse" x="69" y="31" width="15" height="15">
<path d="M76.8482 45.5453C76.6188 45.5453 76.3893 45.5345 76.1614 45.5128C75.932 45.4895 75.7057 45.4554 75.4809 45.412C75.2545 45.3671 75.0328 45.3112 74.8127 45.2446C74.5926 45.1779 74.3771 45.1004 74.1647 45.012C73.9523 44.9252 73.7461 44.826 73.543 44.719C73.3399 44.6105 73.1446 44.4927 72.9524 44.364C72.7617 44.2369 72.5772 44.1005 72.4005 43.9548C72.2222 43.809 72.0532 43.6556 71.8904 43.4928C71.7277 43.33 71.5742 43.161 71.4285 42.9827C71.2827 42.806 71.1463 42.6215 71.0192 42.4309C70.8905 42.2402 70.7727 42.0433 70.6657 41.8402C70.5572 41.6371 70.4595 41.4309 70.3712 41.2185C70.2828 41.0062 70.2053 40.7907 70.1386 40.5705C70.072 40.3504 70.0162 40.1287 69.9712 39.9039C69.9278 39.6776 69.8937 39.4512 69.8704 39.2233C69.8487 38.9939 69.8379 38.7645 69.8379 38.535C69.8379 38.3056 69.8487 38.0761 69.8704 37.8483C69.8937 37.6204 69.9278 37.3925 69.9712 37.1677C70.0162 36.9429 70.072 36.7197 70.1386 36.5011C70.2053 36.2809 70.2828 36.0655 70.3712 35.8531C70.4595 35.6407 70.5572 35.4329 70.6657 35.2314C70.7727 35.0283 70.8905 34.8314 71.0192 34.6408C71.1463 34.4501 71.2827 34.2656 71.4285 34.0873C71.5742 33.9106 71.7277 33.7401 71.8904 33.5788C72.0532 33.416 72.2222 33.2626 72.4005 33.1168C72.5772 32.9711 72.7617 32.8331 72.9524 32.706C73.1446 32.5789 73.3399 32.4611 73.543 32.3526C73.7461 32.244 73.9523 32.1464 74.1647 32.058C74.3771 31.9712 74.5926 31.8937 74.8127 31.827C75.0328 31.7604 75.2545 31.7046 75.4809 31.6596C75.7057 31.6146 75.932 31.5805 76.1614 31.5588C76.3893 31.5356 76.6188 31.5247 76.8482 31.5247C77.0776 31.5247 77.3071 31.5356 77.535 31.5588C77.7629 31.5805 77.9907 31.6146 78.2155 31.6596C78.4403 31.7046 78.6636 31.7604 78.8837 31.827C79.1023 31.8937 79.3193 31.9712 79.5302 32.058C79.7425 32.1464 79.9503 32.244 80.1534 32.3526C80.3549 32.4611 80.5518 32.5789 80.7425 32.706C80.9332 32.8331 81.1176 32.9711 81.2959 33.1168C81.4726 33.2626 81.6432 33.416 81.8044 33.5788C81.9672 33.7401 82.1222 33.9106 82.2679 34.0873C82.4121 34.2656 82.5501 34.4501 82.6772 34.6408C82.8043 34.8314 82.9221 35.0283 83.0307 35.2314C83.1392 35.4329 83.2369 35.6407 83.3252 35.8531C83.412 36.0655 83.4895 36.2809 83.5562 36.5011C83.6229 36.7197 83.6787 36.9429 83.7236 37.1677C83.7686 37.3925 83.8027 37.6204 83.8244 37.8483C83.8477 38.0761 83.8585 38.3056 83.8585 38.535C83.8585 38.7645 83.8477 38.9939 83.8244 39.2233C83.8027 39.4512 83.7686 39.6776 83.7236 39.9039C83.6787 40.1287 83.6229 40.3504 83.5562 40.5705C83.4895 40.7907 83.412 41.0062 83.3252 41.2185C83.2369 41.4309 83.1392 41.6371 83.0307 41.8402C82.9221 42.0433 82.8043 42.2402 82.6772 42.4309C82.5501 42.6215 82.4121 42.806 82.2679 42.9827C82.1222 43.161 81.9672 43.33 81.8044 43.4928C81.6432 43.6556 81.4726 43.809 81.2959 43.9548C81.1176 44.1005 80.9332 44.2369 80.7425 44.364C80.5518 44.4927 80.3549 44.6105 80.1534 44.719C79.9503 44.826 79.7425 44.9252 79.5302 45.012C79.3193 45.1004 79.1023 45.1779 78.8837 45.2446C78.6636 45.3112 78.4403 45.3671 78.2155 45.412C77.9907 45.4554 77.7629 45.4895 77.535 45.5128C77.3071 45.5345 77.0776 45.5453 76.8482 45.5453Z" fill="white"/>
</mask>
<g mask="url(#mask3_221_2528)">
<path d="M83.8585 31.5247H69.8379V45.5453H83.8585V31.5247Z" fill="url(#paint1_linear_221_2528)"/>
</g>
</g>
<mask id="mask4_221_2528" style="mask-type:luminance" maskUnits="userSpaceOnUse" x="91" y="72" width="9" height="9">
<path d="M91.2798 72.2301H100V80.9612H91.2798V72.2301Z" fill="white"/>
</mask>
<g mask="url(#mask4_221_2528)">
<mask id="mask5_221_2528" style="mask-type:luminance" maskUnits="userSpaceOnUse" x="91" y="72" width="9" height="9">
<path d="M95.8174 80.9535C95.543 80.9535 95.2717 80.9256 95.0019 80.8728C94.7322 80.8186 94.4718 80.7395 94.2175 80.6341C93.9633 80.5287 93.723 80.4 93.4935 80.2481C93.2656 80.0946 93.0548 79.9225 92.861 79.7272C92.6657 79.5334 92.4921 79.3226 92.3401 79.0931C92.1882 78.8653 92.058 78.625 91.9541 78.3707C91.8487 78.1165 91.7696 77.856 91.7154 77.5863C91.6627 77.3165 91.6348 77.0452 91.6348 76.7693C91.6348 76.4949 91.6627 76.2236 91.7154 75.9539C91.7696 75.6841 91.8487 75.4237 91.9541 75.1694C92.058 74.9152 92.1882 74.6749 92.3401 74.4454C92.4921 74.2176 92.6657 74.0067 92.861 73.8129C93.0548 73.6176 93.2656 73.444 93.4935 73.292C93.723 73.1401 93.9633 73.0099 94.2175 72.906C94.4718 72.8006 94.7322 72.7215 95.0019 72.6673C95.2717 72.6146 95.543 72.5867 95.8174 72.5867C96.0933 72.5867 96.3646 72.6146 96.6344 72.6673C96.9041 72.7215 97.1646 72.8006 97.4188 72.906C97.6731 73.0099 97.9133 73.1401 98.1412 73.292C98.3707 73.444 98.5815 73.6176 98.7753 73.8129C98.9706 74.0067 99.1427 74.2176 99.2962 74.4454C99.4481 74.6749 99.5768 74.9152 99.6822 75.1694C99.7876 75.4237 99.8667 75.6841 99.9209 75.9539C99.9737 76.2236 100 76.4949 100 76.7693C100 77.0452 99.9737 77.3165 99.9209 77.5863C99.8667 77.856 99.7876 78.1165 99.6822 78.3707C99.5768 78.625 99.4481 78.8653 99.2962 79.0931C99.1427 79.3226 98.9706 79.5334 98.7753 79.7272C98.5815 79.9225 98.3707 80.0946 98.1412 80.2481C97.9133 80.4 97.6731 80.5287 97.4188 80.6341C97.1646 80.7395 96.9041 80.8186 96.6344 80.8728C96.3646 80.9256 96.0933 80.9535 95.8174 80.9535Z" fill="white"/>
</mask>
<g mask="url(#mask5_221_2528)">
<path d="M100 72.5867H91.6348V80.9535H100V72.5867Z" fill="url(#paint2_linear_221_2528)"/>
</g>
</g>
<mask id="mask6_221_2528" style="mask-type:luminance" maskUnits="userSpaceOnUse" x="32" y="134" width="15" height="15">
<path d="M32.5432 134.538H46.0367V148.03H32.5432V134.538Z" fill="white"/>
</mask>
<g mask="url(#mask6_221_2528)">
<mask id="mask7_221_2528" style="mask-type:luminance" maskUnits="userSpaceOnUse" x="32" y="134" width="14" height="14">
<path d="M39.1442 147.937C38.9271 147.937 38.7116 147.927 38.4962 147.905C38.2822 147.883 38.0683 147.852 37.8559 147.81C37.6451 147.768 37.4358 147.716 37.228 147.652C37.0218 147.59 36.8188 147.517 36.6188 147.435C36.4188 147.351 36.2235 147.26 36.0328 147.158C35.8421 147.055 35.6576 146.945 35.4778 146.824C35.298 146.705 35.1243 146.576 34.9584 146.438C34.791 146.302 34.6313 146.156 34.4779 146.004C34.3259 145.851 34.1802 145.691 34.0438 145.524C33.9058 145.358 33.7771 145.184 33.6578 145.004C33.5368 144.824 33.4268 144.64 33.3245 144.449C33.2221 144.259 33.1307 144.063 33.047 143.863C32.9648 143.663 32.8919 143.46 32.8299 143.254C32.7664 143.046 32.7137 142.837 32.6718 142.626C32.6299 142.414 32.5989 142.2 32.5772 141.986C32.5555 141.77 32.5447 141.555 32.5447 141.338C32.5447 141.122 32.5555 140.907 32.5772 140.691C32.5989 140.476 32.6299 140.264 32.6718 140.051C32.7137 139.839 32.7664 139.63 32.8299 139.423C32.8919 139.216 32.9648 139.013 33.047 138.814C33.1307 138.614 33.2221 138.419 33.3245 138.228C33.4268 138.037 33.5368 137.853 33.6578 137.673C33.7771 137.493 33.9058 137.32 34.0438 137.152C34.1802 136.985 34.3259 136.825 34.4779 136.673C34.6313 136.52 34.791 136.376 34.9584 136.238C35.1243 136.101 35.298 135.972 35.4778 135.852C35.6576 135.732 35.8421 135.621 36.0328 135.52C36.2235 135.417 36.4188 135.324 36.6188 135.242C36.8188 135.16 37.0218 135.087 37.228 135.024C37.4358 134.962 37.6451 134.909 37.8559 134.867C38.0683 134.825 38.2822 134.793 38.4962 134.773C38.7116 134.751 38.9271 134.74 39.1442 134.74C39.3597 134.74 39.5751 134.751 39.7906 134.773C40.0061 134.793 40.2185 134.825 40.4309 134.867C40.6433 134.909 40.8526 134.962 41.0587 135.024C41.2665 135.087 41.4696 135.16 41.668 135.242C41.868 135.324 42.0633 135.417 42.254 135.52C42.4447 135.621 42.6292 135.732 42.809 135.852C42.9888 135.972 43.1625 136.101 43.3299 136.238C43.4973 136.376 43.657 136.52 43.8089 136.673C43.9624 136.825 44.1066 136.985 44.2445 137.152C44.381 137.32 44.5096 137.493 44.6306 137.673C44.7499 137.853 44.8615 138.037 44.9623 138.228C45.0646 138.419 45.1577 138.614 45.2398 138.814C45.322 139.013 45.3948 139.216 45.4584 139.423C45.5204 139.63 45.5731 139.839 45.615 140.051C45.6568 140.264 45.6894 140.476 45.7095 140.691C45.7312 140.907 45.7421 141.122 45.7421 141.338C45.7421 141.555 45.7312 141.77 45.7095 141.986C45.6894 142.2 45.6568 142.414 45.615 142.626C45.5731 142.837 45.5204 143.046 45.4584 143.254C45.3948 143.46 45.322 143.663 45.2398 143.863C45.1577 144.063 45.0646 144.259 44.9623 144.449C44.8615 144.64 44.7499 144.824 44.6306 145.004C44.5096 145.184 44.381 145.358 44.2445 145.524C44.1066 145.691 43.9624 145.851 43.8089 146.004C43.657 146.156 43.4973 146.302 43.3299 146.438C43.1625 146.576 42.9888 146.705 42.809 146.824C42.6292 146.945 42.4447 147.055 42.254 147.158C42.0633 147.26 41.868 147.351 41.668 147.435C41.4696 147.517 41.2665 147.59 41.0587 147.652C40.8526 147.716 40.6433 147.768 40.4309 147.81C40.2185 147.852 40.0061 147.883 39.7906 147.905C39.5751 147.927 39.3597 147.937 39.1442 147.937Z" fill="white"/>
</mask>
<g mask="url(#mask7_221_2528)">
<path d="M45.7421 134.74H32.5447V147.937H45.7421V134.74Z" fill="url(#paint3_linear_221_2528)"/>
</g>
</g>
<defs>
<linearGradient id="paint0_linear_221_2528" x1="-0.307006" y1="72.5277" x2="98.9985" y2="72.5277" gradientUnits="userSpaceOnUse">
<stop stop-color="#38ACFF"/>
<stop offset="0.5" stop-color="#8833FF"/>
<stop offset="1" stop-color="#FF7033"/>
</linearGradient>
<linearGradient id="paint1_linear_221_2528" x1="69.8379" y1="38.535" x2="83.8585" y2="38.535" gradientUnits="userSpaceOnUse">
<stop stop-color="#38ACFF"/>
<stop offset="0.5" stop-color="#8833FF"/>
<stop offset="1" stop-color="#FF7033"/>
</linearGradient>
<linearGradient id="paint2_linear_221_2528" x1="91.6348" y1="76.7701" x2="100" y2="76.7701" gradientUnits="userSpaceOnUse">
<stop stop-color="#38ACFF"/>
<stop offset="0.5" stop-color="#8833FF"/>
<stop offset="1" stop-color="#FF7033"/>
</linearGradient>
<linearGradient id="paint3_linear_221_2528" x1="32.5447" y1="141.339" x2="45.7421" y2="141.339" gradientUnits="userSpaceOnUse">
<stop stop-color="#38ACFF"/>
<stop offset="0.5" stop-color="#8833FF"/>
<stop offset="1" stop-color="#FF7033"/>
</linearGradient>
</defs>
</svg>
