<svg xmlns="http://www.w3.org/2000/svg" xmlns:xlink="http://www.w3.org/1999/xlink" width="500" zoomAndPan="magnify" viewBox="0 0 375 374.999991" height="500" preserveAspectRatio="xMidYMid meet" version="1.0"><defs><clipPath id="9f006382e2"><path d="M 5 108 L 371 108 L 371 321 L 5 321 Z M 5 108 " clip-rule="nonzero"/></clipPath><clipPath id="688d8a51b6"><path d="M 65 11.941406 L 395.984375 139.609375 L 309.882812 362.828125 L -21.101562 235.160156 Z M 65 11.941406 " clip-rule="nonzero"/></clipPath><clipPath id="8c4a849393"><path d="M 65 11.941406 L 395.984375 139.609375 L 309.882812 362.828125 L -21.101562 235.160156 Z M 65 11.941406 " clip-rule="nonzero"/></clipPath><clipPath id="8a447e395b"><path d="M 368.582031 190.632812 C 376.816406 162.636719 362.746094 132.359375 336.167969 120.453125 C 315.648438 111.183594 292.9375 114.621094 276.390625 127.0625 C 268.144531 133.21875 256.738281 132.734375 248.722656 126.179688 C 242.554688 121.089844 235.324219 116.792969 227.460938 113.761719 C 204.390625 104.859375 179.664062 107.671875 159.769531 119.425781 C 148.242188 126.273438 133.9375 125.875 122.375 119.15625 C 117.355469 116.164062 111.820312 113.730469 106.03125 111.949219 C 68.496094 100.332031 27.816406 119.125 12.136719 155.09375 C -5.726562 195.9375 14.238281 242.945312 55.402344 258.824219 C 72.441406 265.394531 90.316406 265.515625 106.382812 260.566406 C 122.628906 255.539062 139.992188 262.839844 147.691406 278.007812 C 156.703125 295.636719 172.40625 309.976562 193 316.714844 C 230.855469 329.058594 272.605469 310.226562 288.355469 273.683594 C 290.15625 269.410156 291.589844 265.292969 292.683594 260.898438 C 296.261719 246.164062 307.8125 234.957031 322.753906 232.136719 C 343.660156 228.304688 362.023438 213.097656 368.582031 190.632812 Z M 368.582031 190.632812 " clip-rule="nonzero"/></clipPath><clipPath id="ff1c243fa1"><path d="M 115 80 L 150 80 L 150 114 L 115 114 Z M 115 80 " clip-rule="nonzero"/></clipPath><clipPath id="18e570daf7"><path d="M 65 11.941406 L 395.984375 139.609375 L 309.882812 362.828125 L -21.101562 235.160156 Z M 65 11.941406 " clip-rule="nonzero"/></clipPath><clipPath id="81eb2f1157"><path d="M 65 11.941406 L 395.984375 139.609375 L 309.882812 362.828125 L -21.101562 235.160156 Z M 65 11.941406 " clip-rule="nonzero"/></clipPath><clipPath id="fbda4251dc"><path d="M 148.246094 103.234375 C 148.046875 103.742188 147.824219 104.242188 147.578125 104.734375 C 147.332031 105.222656 147.0625 105.699219 146.769531 106.160156 C 146.476562 106.625 146.164062 107.070312 145.828125 107.503906 C 145.488281 107.933594 145.132812 108.347656 144.753906 108.746094 C 144.378906 109.140625 143.980469 109.519531 143.566406 109.875 C 143.152344 110.234375 142.71875 110.570312 142.273438 110.886719 C 141.824219 111.199219 141.363281 111.492188 140.886719 111.761719 C 140.410156 112.035156 139.921875 112.277344 139.421875 112.5 C 138.921875 112.722656 138.410156 112.921875 137.890625 113.089844 C 137.371094 113.261719 136.84375 113.410156 136.308594 113.53125 C 135.773438 113.648438 135.234375 113.742188 134.691406 113.808594 C 134.148438 113.875 133.601562 113.917969 133.054688 113.929688 C 132.507812 113.945312 131.960938 113.929688 131.414062 113.890625 C 130.871094 113.851562 130.328125 113.78125 129.785156 113.691406 C 129.246094 113.597656 128.714844 113.476562 128.1875 113.332031 C 127.660156 113.183594 127.140625 113.011719 126.628906 112.816406 C 126.117188 112.617188 125.617188 112.398438 125.128906 112.152344 C 124.640625 111.90625 124.164062 111.636719 123.699219 111.34375 C 123.238281 111.050781 122.789062 110.734375 122.359375 110.398438 C 121.925781 110.058594 121.511719 109.703125 121.117188 109.324219 C 120.71875 108.949219 120.34375 108.550781 119.984375 108.136719 C 119.628906 107.722656 119.289062 107.292969 118.976562 106.84375 C 118.660156 106.394531 118.367188 105.933594 118.097656 105.457031 C 117.828125 104.980469 117.582031 104.492188 117.359375 103.992188 C 117.136719 103.492188 116.941406 102.980469 116.769531 102.460938 C 116.597656 101.941406 116.453125 101.414062 116.332031 100.878906 C 116.210938 100.34375 116.117188 99.804688 116.050781 99.261719 C 115.984375 98.71875 115.945312 98.175781 115.929688 97.625 C 115.917969 97.078125 115.929688 96.53125 115.972656 95.988281 C 116.011719 95.441406 116.078125 94.898438 116.171875 94.359375 C 116.265625 93.820312 116.386719 93.285156 116.53125 92.757812 C 116.675781 92.230469 116.847656 91.710938 117.046875 91.199219 C 117.242188 90.6875 117.464844 90.1875 117.710938 89.699219 C 117.957031 89.210938 118.226562 88.734375 118.519531 88.269531 C 118.8125 87.808594 119.128906 87.363281 119.464844 86.929688 C 119.800781 86.5 120.160156 86.082031 120.535156 85.6875 C 120.914062 85.289062 121.308594 84.914062 121.722656 84.554688 C 122.140625 84.199219 122.570312 83.863281 123.019531 83.546875 C 123.464844 83.230469 123.925781 82.9375 124.402344 82.667969 C 124.878906 82.398438 125.367188 82.152344 125.871094 81.929688 C 126.371094 81.710938 126.878906 81.511719 127.398438 81.339844 C 127.921875 81.167969 128.449219 81.023438 128.980469 80.902344 C 129.515625 80.78125 130.054688 80.6875 130.597656 80.621094 C 131.140625 80.554688 131.6875 80.515625 132.234375 80.5 C 132.78125 80.488281 133.328125 80.5 133.875 80.542969 C 134.421875 80.582031 134.964844 80.648438 135.503906 80.742188 C 136.042969 80.835938 136.578125 80.957031 137.105469 81.101562 C 137.632812 81.246094 138.152344 81.417969 138.664062 81.617188 C 139.171875 81.8125 139.671875 82.035156 140.164062 82.28125 C 140.652344 82.527344 141.128906 82.796875 141.589844 83.089844 C 142.050781 83.382812 142.5 83.699219 142.929688 84.035156 C 143.363281 84.371094 143.777344 84.730469 144.175781 85.105469 C 144.570312 85.484375 144.949219 85.878906 145.304688 86.296875 C 145.664062 86.710938 146 87.140625 146.316406 87.589844 C 146.628906 88.035156 146.921875 88.5 147.191406 88.976562 C 147.460938 89.449219 147.707031 89.941406 147.929688 90.441406 C 148.152344 90.941406 148.347656 91.453125 148.519531 91.972656 C 148.691406 92.492188 148.839844 93.019531 148.957031 93.550781 C 149.078125 94.085938 149.171875 94.625 149.238281 95.167969 C 149.304688 95.710938 149.347656 96.257812 149.359375 96.804688 C 149.375 97.351562 149.359375 97.898438 149.320312 98.445312 C 149.277344 98.992188 149.210938 99.535156 149.117188 100.074219 C 149.023438 100.613281 148.90625 101.148438 148.757812 101.675781 C 148.613281 102.203125 148.441406 102.722656 148.246094 103.234375 Z M 148.246094 103.234375 " clip-rule="nonzero"/></clipPath><clipPath id="ca4787584e"><path d="M 224 77 L 244 77 L 244 98 L 224 98 Z M 224 77 " clip-rule="nonzero"/></clipPath><clipPath id="7a3408c565"><path d="M 65 11.941406 L 395.984375 139.609375 L 309.882812 362.828125 L -21.101562 235.160156 Z M 65 11.941406 " clip-rule="nonzero"/></clipPath><clipPath id="9ee539a769"><path d="M 65 11.941406 L 395.984375 139.609375 L 309.882812 362.828125 L -21.101562 235.160156 Z M 65 11.941406 " clip-rule="nonzero"/></clipPath><clipPath id="7f39b5f749"><path d="M 243.308594 91.410156 C 243.074219 92.023438 242.78125 92.605469 242.429688 93.160156 C 242.078125 93.710938 241.679688 94.226562 241.226562 94.699219 C 240.777344 95.175781 240.28125 95.601562 239.746094 95.976562 C 239.210938 96.355469 238.644531 96.675781 238.046875 96.941406 C 237.445312 97.207031 236.828125 97.410156 236.1875 97.554688 C 235.550781 97.699219 234.902344 97.777344 234.246094 97.792969 C 233.59375 97.808594 232.941406 97.761719 232.296875 97.648438 C 231.652344 97.539062 231.023438 97.363281 230.414062 97.128906 C 229.800781 96.894531 229.21875 96.601562 228.664062 96.25 C 228.113281 95.898438 227.597656 95.5 227.125 95.046875 C 226.648438 94.59375 226.222656 94.101562 225.847656 93.566406 C 225.46875 93.03125 225.148438 92.464844 224.882812 91.863281 C 224.617188 91.265625 224.414062 90.644531 224.269531 90.007812 C 224.125 89.367188 224.046875 88.722656 224.03125 88.066406 C 224.015625 87.410156 224.0625 86.761719 224.171875 86.117188 C 224.285156 85.472656 224.460938 84.84375 224.695312 84.230469 C 224.929688 83.621094 225.222656 83.039062 225.574219 82.484375 C 225.925781 81.929688 226.324219 81.417969 226.777344 80.941406 C 227.230469 80.46875 227.722656 80.042969 228.257812 79.664062 C 228.792969 79.289062 229.359375 78.96875 229.960938 78.703125 C 230.558594 78.4375 231.175781 78.230469 231.816406 78.089844 C 232.457031 77.945312 233.101562 77.863281 233.757812 77.847656 C 234.414062 77.832031 235.0625 77.878906 235.707031 77.992188 C 236.351562 78.105469 236.980469 78.277344 237.59375 78.515625 C 238.203125 78.75 238.785156 79.042969 239.339844 79.394531 C 239.890625 79.742188 240.40625 80.144531 240.878906 80.597656 C 241.355469 81.046875 241.78125 81.542969 242.15625 82.078125 C 242.535156 82.613281 242.855469 83.179688 243.121094 83.777344 C 243.386719 84.378906 243.59375 84.996094 243.734375 85.636719 C 243.878906 86.273438 243.957031 86.921875 243.976562 87.578125 C 243.992188 88.230469 243.941406 88.882812 243.832031 89.527344 C 243.71875 90.171875 243.546875 90.800781 243.308594 91.410156 Z M 243.308594 91.410156 " clip-rule="nonzero"/></clipPath><clipPath id="8376a82ec9"><path d="M 313 253 L 345 253 L 345 286 L 313 286 Z M 313 253 " clip-rule="nonzero"/></clipPath><clipPath id="b4836519d8"><path d="M 65 11.941406 L 395.984375 139.609375 L 309.882812 362.828125 L -21.101562 235.160156 Z M 65 11.941406 " clip-rule="nonzero"/></clipPath><clipPath id="87db5b97ab"><path d="M 65 11.941406 L 395.984375 139.609375 L 309.882812 362.828125 L -21.101562 235.160156 Z M 65 11.941406 " clip-rule="nonzero"/></clipPath><clipPath id="7a65365066"><path d="M 343.714844 275.007812 C 343.34375 275.972656 342.878906 276.890625 342.328125 277.765625 C 341.773438 278.636719 341.140625 279.449219 340.429688 280.195312 C 339.71875 280.945312 338.9375 281.617188 338.09375 282.210938 C 337.25 282.804688 336.355469 283.3125 335.410156 283.730469 C 334.464844 284.148438 333.488281 284.472656 332.480469 284.699219 C 331.472656 284.925781 330.453125 285.050781 329.417969 285.078125 C 328.386719 285.101562 327.359375 285.027344 326.34375 284.851562 C 325.324219 284.671875 324.332031 284.398438 323.367188 284.027344 C 322.40625 283.65625 321.488281 283.191406 320.613281 282.640625 C 319.742188 282.085938 318.929688 281.453125 318.183594 280.742188 C 317.433594 280.03125 316.761719 279.25 316.167969 278.40625 C 315.570312 277.5625 315.066406 276.667969 314.644531 275.722656 C 314.226562 274.777344 313.90625 273.800781 313.679688 272.792969 C 313.453125 271.785156 313.328125 270.765625 313.300781 269.730469 C 313.277344 268.699219 313.351562 267.671875 313.527344 266.65625 C 313.703125 265.636719 313.980469 264.644531 314.351562 263.683594 C 314.722656 262.71875 315.183594 261.800781 315.738281 260.925781 C 316.289062 260.054688 316.921875 259.242188 317.636719 258.496094 C 318.347656 257.746094 319.125 257.074219 319.972656 256.480469 C 320.816406 255.886719 321.710938 255.378906 322.65625 254.960938 C 323.601562 254.539062 324.574219 254.21875 325.585938 253.992188 C 326.59375 253.765625 327.613281 253.640625 328.644531 253.613281 C 329.679688 253.589844 330.703125 253.664062 331.722656 253.839844 C 332.742188 254.015625 333.730469 254.292969 334.695312 254.664062 C 335.660156 255.035156 336.578125 255.496094 337.449219 256.050781 C 338.324219 256.601562 339.132812 257.234375 339.882812 257.949219 C 340.632812 258.660156 341.300781 259.4375 341.898438 260.285156 C 342.492188 261.128906 343 262.023438 343.417969 262.96875 C 343.835938 263.914062 344.160156 264.890625 344.386719 265.898438 C 344.613281 266.90625 344.738281 267.925781 344.761719 268.957031 C 344.789062 269.992188 344.714844 271.015625 344.535156 272.035156 C 344.359375 273.054688 344.085938 274.042969 343.714844 275.007812 Z M 343.714844 275.007812 " clip-rule="nonzero"/></clipPath></defs><g clip-path="url(#9f006382e2)"><g clip-path="url(#688d8a51b6)"><g clip-path="url(#8c4a849393)"><g clip-path="url(#8a447e395b)"><path fill="#4b5ae4" d="M 48.566406 -25.582031 L -76.800781 299.4375 L 326.433594 454.972656 L 451.800781 129.953125 Z M 48.566406 -25.582031 " fill-opacity="1" fill-rule="nonzero"/></g></g></g></g><g clip-path="url(#ff1c243fa1)"><g clip-path="url(#18e570daf7)"><g clip-path="url(#81eb2f1157)"><g clip-path="url(#fbda4251dc)"><path fill="#4b5ae4" d="M 120.25 69.253906 L 104.683594 109.609375 L 145.039062 125.175781 L 160.605469 84.820312 Z M 120.25 69.253906 " fill-opacity="1" fill-rule="nonzero"/></g></g></g></g><g clip-path="url(#ca4787584e)"><g clip-path="url(#7a3408c565)"><g clip-path="url(#9ee539a769)"><g clip-path="url(#7f39b5f749)"><path fill="#4b5ae4" d="M 226.601562 71.125 L 217.304688 95.222656 L 241.402344 104.519531 L 250.699219 80.421875 Z M 226.601562 71.125 " fill-opacity="1" fill-rule="nonzero"/></g></g></g></g><g clip-path="url(#8376a82ec9)"><g clip-path="url(#b4836519d8)"><g clip-path="url(#87db5b97ab)"><g clip-path="url(#7a65365066)"><path fill="#4b5ae4" d="M 317.355469 243.007812 L 302.695312 281.019531 L 340.707031 295.683594 L 355.371094 257.667969 Z M 317.355469 243.007812 " fill-opacity="1" fill-rule="nonzero"/></g></g></g></g></svg>